# Blender v2.93.5 OBJ File: 'untitled.blend'
# www.blender.org
mtllib untitled.mtl
o Reference_Cube
v 0.200000 6.000000 -0.200000
v 0.200000 0.000000 -0.200000
v 0.200000 6.000000 0.200000
v 0.200000 0.000000 0.200000
v -0.200000 6.000000 -0.200000
v -0.200000 0.000000 -0.200000
v -0.200000 6.000000 0.200000
v -0.200000 0.000000 0.200000
vt 0.625000 0.500000
vt 0.875000 0.500000
vt 0.875000 0.750000
vt 0.625000 0.750000
vt 0.375000 0.750000
vt 0.625000 1.000000
vt 0.375000 1.000000
vt 0.375000 0.000000
vt 0.625000 0.000000
vt 0.625000 0.250000
vt 0.375000 0.250000
vt 0.125000 0.500000
vt 0.375000 0.500000
vt 0.125000 0.750000
vn 0.0000 1.0000 0.0000
vn 0.0000 0.0000 1.0000
vn -1.0000 0.0000 0.0000
vn 0.0000 -1.0000 0.0000
vn 1.0000 0.0000 0.0000
vn 0.0000 0.0000 -1.0000
g Reference_Cube_Material
usemtl Material
s off
f 1/1/1 5/2/1 7/3/1 3/4/1
f 4/5/2 3/4/2 7/6/2 8/7/2
f 8/8/3 7/9/3 5/10/3 6/11/3
f 6/12/4 2/13/4 4/5/4 8/14/4
f 2/13/5 1/1/5 3/4/5 4/5/5
f 6/11/6 5/10/6 1/1/6 2/13/6
o Lightning_Cube.001
v 0.000000 6.000000 0.000000
v 0.040000 0.000000 -0.040000
v 0.000000 6.000000 0.000000
v 0.040000 0.000000 0.040000
v 0.000000 6.000000 0.000000
v -0.040000 0.000000 -0.040000
v 0.000000 6.000000 0.000000
v -0.040000 0.000000 0.040000
v 0.174387 5.343932 -0.112731
v -0.156870 4.721217 -0.100658
v 0.080858 4.054664 0.012751
v 0.100262 4.002874 0.020962
v -0.070403 3.360048 -0.134658
v 0.034556 2.817740 -0.022712
v -0.075874 2.362615 -0.160125
v 0.040000 1.840178 -0.007419
v 0.185152 1.225721 -0.110271
v -0.032849 0.744224 0.085805
v 0.040000 0.340178 -0.144978
v -0.040000 0.340178 -0.064978
v -0.112849 0.744224 0.165805
v 0.050388 1.531015 0.038689
v 0.041609 1.618847 0.043096
v -0.161319 2.340178 -0.110961
v -0.022222 2.861700 0.036081
v -0.032345 2.907301 0.048734
v 0.077533 3.791271 0.166101
v -0.116561 4.529111 -0.000246
v -0.162387 4.600254 -0.006486
v 0.129816 5.343932 -0.068159
v 0.174387 5.343932 -0.068159
v -0.134228 4.600254 -0.006486
v -0.088402 4.529111 -0.000246
v 0.157533 3.791271 0.166101
v 0.002958 2.907301 0.048734
v 0.013081 2.861700 0.036081
v -0.075874 2.362615 -0.128249
v 0.059546 1.618847 0.043096
v 0.068325 1.531015 0.038689
v -0.032849 0.744224 0.165805
v 0.040000 0.340178 -0.064978
v 0.129816 5.343932 -0.112731
v -0.236870 4.721217 -0.100658
v 0.061498 4.054664 0.012751
v 0.080902 4.002874 0.020962
v -0.150403 3.360048 -0.134658
v -0.040000 2.840178 -0.040000
v -0.161319 2.340178 -0.190961
v -0.040000 1.840178 -0.007419
v 0.105152 1.225721 -0.110271
v -0.112849 0.744224 0.085805
v -0.040000 0.340178 -0.144978
v -0.040000 2.840178 0.040000
v -0.150403 3.360048 -0.054658
v -0.070403 3.360048 -0.054658
v 0.034556 2.817740 0.009164
v -0.022222 2.939101 0.151330
v -0.032345 2.969275 0.114873
v 0.002958 2.969275 0.114873
v 0.013081 2.939101 0.151330
v 0.003439 3.089501 0.120447
v -0.003714 3.094672 0.087410
v 0.021231 3.094672 0.087410
v 0.028384 3.089501 0.120447
v 0.007125 3.396459 0.113374
v 0.007125 3.396459 0.113374
v 0.007125 3.396459 0.113374
v 0.007125 3.396459 0.113374
v 0.040000 4.340178 -0.040000
v 0.157533 3.791271 0.086101
v 0.040000 2.840178 -0.040000
v -0.081319 2.340178 -0.190961
v 0.105152 1.225721 -0.030271
v -0.040000 1.840178 0.072581
v -0.040000 4.340178 0.040000
v -0.236870 4.721217 -0.020658
v -0.156870 4.721217 -0.020658
v 0.040000 4.340178 0.040000
v 0.040000 2.840178 0.040000
v -0.081319 2.340178 -0.110961
v 0.040000 1.840178 0.072581
v 0.185152 1.225721 -0.030271
v -0.040000 4.340178 -0.040000
v 0.077533 3.791271 0.086101
v -0.118365 4.621163 0.111409
v -0.154835 4.669064 0.080816
v -0.132424 4.669064 0.080816
v -0.095954 4.621163 0.111409
v -0.147223 4.780587 0.128384
v -0.174491 4.802029 0.091695
v -0.157735 4.802029 0.091695
v -0.130468 4.780587 0.128384
v -0.114435 5.034224 0.099416
v -0.114435 5.034224 0.099416
v -0.114435 5.034224 0.099416
v -0.114435 5.034224 0.099416
v 0.080862 4.108942 -0.067230
v 0.096950 4.075953 -0.095550
v 0.064809 4.108942 -0.067230
v 0.080898 4.075953 -0.095550
v 0.084716 4.211430 -0.100696
v 0.099142 4.205689 -0.139257
v 0.070322 4.211430 -0.100696
v 0.084748 4.205689 -0.139257
v 0.067510 4.491001 -0.167501
v 0.067510 4.491001 -0.167501
v 0.067510 4.491001 -0.167501
v 0.067510 4.491001 -0.167501
v 0.149127 1.973217 0.181541
v 0.149127 1.973217 0.181541
v 0.149127 1.973217 0.181541
v 0.149127 1.973217 0.181541
v 0.156148 1.862700 0.175547
v 0.146720 1.862700 0.175547
v 0.142106 1.874786 0.130933
v 0.151534 1.874786 0.130933
v 0.103905 1.650985 0.160707
v 0.097223 1.704780 0.120878
v 0.083570 1.704780 0.120878
v 0.090252 1.650985 0.160707
vt 0.625000 0.500000
vt 0.875000 0.500000
vt 0.875000 0.750000
vt 0.625000 0.750000
vt 0.597507 0.750000
vt 0.625000 1.000000
vt 0.597507 1.000000
vt 0.597507 0.000000
vt 0.625000 0.000000
vt 0.625000 0.250000
vt 0.597507 0.250000
vt 0.125000 0.500000
vt 0.375000 0.500000
vt 0.375000 0.750000
vt 0.125000 0.750000
vt 0.597507 0.500000
vt 0.375000 0.250000
vt 0.389174 0.250000
vt 0.389174 0.500000
vt 0.410007 0.250000
vt 0.410007 0.500000
vt 0.430841 0.250000
vt 0.430841 0.500000
vt 0.451674 0.250000
vt 0.451674 0.500000
vt 0.472507 0.250000
vt 0.472507 0.500000
vt 0.493341 0.250000
vt 0.493341 0.500000
vt 0.514174 0.250000
vt 0.514174 0.500000
vt 0.535007 0.250000
vt 0.535007 0.500000
vt 0.535862 0.426293
vt 0.535861 0.323706
vt 0.535861 0.323706
vt 0.535862 0.426293
vt 0.555841 0.250000
vt 0.576674 0.250000
vt 0.576674 0.500000
vt 0.555841 0.500000
vt 0.389174 0.750000
vt 0.410007 0.750000
vt 0.430841 0.750000
vt 0.451674 0.750000
vt 0.472507 0.750000
vt 0.473442 0.575194
vt 0.492406 0.575194
vt 0.492406 0.674806
vt 0.473442 0.674806
vt 0.514174 0.750000
vt 0.493341 0.750000
vt 0.535007 0.750000
vt 0.555841 0.750000
vt 0.576674 0.750000
vt 0.375000 0.000000
vt 0.389174 0.000000
vt 0.410007 0.000000
vt 0.430841 0.000000
vt 0.451674 0.000000
vt 0.472507 0.000000
vt 0.493341 0.000000
vt 0.514174 0.000000
vt 0.535007 0.000000
vt 0.555841 0.000000
vt 0.576674 0.000000
vt 0.389174 1.000000
vt 0.375000 1.000000
vt 0.410007 1.000000
vt 0.430841 1.000000
vt 0.431613 0.925915
vt 0.431613 0.824085
vt 0.450902 0.824084
vt 0.450902 0.925915
vt 0.472507 1.000000
vt 0.451674 1.000000
vt 0.493341 1.000000
vt 0.494203 0.930160
vt 0.494203 0.819840
vt 0.494203 0.819840
vt 0.494203 0.930160
vt 0.535007 1.000000
vt 0.514174 1.000000
vt 0.555841 1.000000
vt 0.575427 0.918999
vt 0.557087 0.918998
vt 0.557087 0.918998
vt 0.575427 0.918999
vt 0.576674 1.000000
vt 0.513312 0.930160
vt 0.513312 0.819840
vt 0.513312 0.819840
vt 0.513312 0.930160
vt 0.513312 0.930160
vt 0.513312 0.819840
vt 0.494203 0.930160
vt 0.494203 0.819840
vt 0.494203 0.819840
vt 0.494203 0.930160
vt 0.513312 0.819840
vt 0.513312 0.930160
vt 0.554987 0.426294
vt 0.431613 0.925915
vt 0.450902 0.925915
vt 0.575427 0.831002
vt 0.557087 0.831001
vt 0.450902 0.824084
vt 0.431613 0.824085
vt 0.554987 0.323707
vt 0.557087 0.831001
vt 0.557087 0.831001
vt 0.557087 0.918998
vt 0.575427 0.831002
vt 0.575427 0.831002
vt 0.575427 0.918999
vt 0.575427 0.918999
vt 0.575427 0.831002
vt 0.557087 0.831001
vt 0.557087 0.918998
vt 0.535861 0.323706
vt 0.535862 0.426293
vt 0.554987 0.426294
vt 0.554987 0.323707
vt 0.554987 0.323707
vt 0.554987 0.426294
vt 0.554987 0.426294
vt 0.554987 0.323707
vt 0.535861 0.323706
vt 0.535862 0.426293
vt 0.450902 0.925915
vt 0.431613 0.925915
vt 0.450902 0.824084
vt 0.431613 0.824085
vt 0.431613 0.824085
vt 0.450902 0.824084
vt 0.450902 0.925915
vt 0.431613 0.925915
vn 0.0000 0.0000 1.0000
vn 0.0000 -0.1033 0.9946
vn -0.9810 -0.1941 0.0000
vn 0.0000 -1.0000 0.0000
vn 0.9664 0.2569 0.0000
vn 0.0000 0.1693 -0.9856
vn 0.0000 -0.2949 -0.9555
vn 0.0000 0.4960 -0.8683
vn 0.0000 -0.3771 -0.9262
vn 0.0000 0.1651 -0.9863
vn 0.0000 -0.3446 -0.9387
vn 0.0000 0.2890 -0.9573
vn 0.0000 -0.1791 -0.9838
vn 0.0000 0.4557 -0.8901
vn 0.0000 -0.8472 -0.5314
vn 0.0000 -0.1572 -0.9876
vn 0.0000 -0.0194 -0.9998
vn 1.0000 0.0000 0.0000
vn 0.9841 0.1774 0.0000
vn 0.9110 -0.4125 0.0000
vn 0.9732 0.2299 0.0000
vn 0.9718 0.2358 0.0000
vn 0.9718 -0.2358 0.0000
vn 0.9782 0.2077 0.0000
vn 0.8841 -0.4673 0.0000
vn 0.9778 0.2094 0.0000
vn 0.8884 0.4590 0.0000
vn 0.8829 -0.4696 0.0000
vn -1.0000 0.0000 0.0000
vn -0.9841 -0.1774 0.0000
vn -0.9110 0.4125 0.0000
vn -0.9732 -0.2299 0.0000
vn -0.9718 -0.2358 0.0000
vn -0.9718 0.2358 0.0000
vn -0.9782 -0.2077 0.0000
vn -0.8841 0.4673 0.0000
vn -0.9778 -0.2094 0.0000
vn -0.8884 -0.4590 0.0000
vn -0.8617 0.5074 0.0000
vn 0.0000 0.2949 0.9555
vn 0.0000 -0.4960 0.8683
vn 0.0000 0.3771 0.9262
vn 0.0000 0.3446 0.9387
vn 0.0000 -0.2890 0.9573
vn 0.0000 -0.8302 0.5575
vn 0.0000 -0.4557 0.8901
vn 0.0000 0.2239 0.9746
vn -0.8114 -0.4429 0.3815
vn 0.0000 0.0761 0.9971
vn -0.6434 -0.0262 0.7651
vn 0.6121 0.2397 0.7535
vn 0.0000 0.1791 0.9838
vn -0.0000 0.2226 0.9749
vn 0.0000 -0.2139 -0.9768
vn -0.9651 -0.2077 0.1596
vn 0.0000 0.7297 -0.6838
vn 0.9651 0.2077 -0.1596
vn 0.0000 0.0230 0.9997
vn 0.9288 -0.1814 -0.3232
vn 0.0000 0.2011 0.9796
vn -0.9014 0.2520 0.3522
vn -0.9767 0.0167 0.2141
vn 0.0000 0.0857 -0.9963
vn 0.9774 0.0630 -0.2017
vn 0.6559 -0.0192 -0.7546
vn -0.4932 -0.2360 0.8373
vn 0.3971 0.3393 0.8528
vn -0.2252 0.0232 0.9740
vn 0.3192 -0.0743 0.9448
vn -0.3003 -0.2728 -0.9140
vn 0.0000 -0.2942 -0.9557
vn 0.0000 -0.1817 -0.9834
vn 0.0000 -0.2203 0.9754
vn 0.0000 -0.1320 0.9912
vn 0.0000 0.2083 0.9781
vn 0.0000 0.1164 0.9932
vn 0.0000 -0.1059 0.9944
vn 0.0000 -0.7716 0.6361
vn 0.8183 0.4583 -0.3469
vn 0.0000 0.7854 -0.6190
vn 0.0000 0.0332 -0.9994
vn -0.8021 -0.1871 0.5671
vn 0.0000 0.0815 -0.9967
vn 0.8106 0.2176 -0.5436
vn 0.7616 -0.1209 -0.6367
vn 0.0000 0.1135 0.9935
vn -0.7408 0.1700 0.6499
vn 0.0000 -0.3193 -0.9477
vn 0.9195 0.3368 0.2028
vn 0.0000 0.8274 0.5615
vn -0.9161 -0.3292 -0.2288
vn 0.0000 0.2324 0.9726
vn 0.9256 0.0975 0.3658
vn 0.0000 0.3104 0.9506
vn -0.9243 -0.0863 -0.3718
vn -0.9371 -0.0900 -0.3372
vn 0.0000 -0.0985 -0.9951
vn 0.9344 0.1362 0.3293
vn -0.9941 0.0158 0.1071
vn 0.0000 0.4573 -0.8893
vn 0.0000 -0.0542 0.9985
vn 0.9213 -0.2371 -0.3082
vn 0.9344 0.0130 -0.3560
vn 0.9941 0.0677 -0.0845
vn -0.9126 0.2541 0.3203
vn 0.0000 0.0590 -0.9983
vn 0.0000 -0.7131 0.7011
vn 0.0000 -0.0699 0.9976
vn -0.9236 -0.0049 0.3833
vn 0.0000 0.6711 -0.7414
g Lightning_Cube.001_Material.001
usemtl Material.001
s off
f 9/15/7 13/16/7 15/17/7 11/18/7
f 39/19/8 11/18/8 15/20/8 38/21/8
f 38/22/9 15/23/9 13/24/9 50/25/9
f 14/26/10 10/27/10 12/28/10 16/29/10
f 17/30/11 9/15/11 11/18/11 39/19/11
f 50/25/12 13/24/12 9/15/12 17/30/12
f 14/31/13 60/32/13 27/33/13 10/27/13
f 60/32/14 59/34/14 26/35/14 27/33/14
f 59/34/15 58/36/15 25/37/15 26/35/15
f 58/36/16 57/38/16 24/39/16 25/37/16
f 57/38/17 56/40/17 80/41/17 24/39/17
f 56/40/18 55/42/18 79/43/18 80/41/18
f 55/42/19 54/44/19 21/45/19 79/43/19
f 54/44/20 92/46/20 78/47/20 21/45/20
f 20/48/21 53/49/21 108/50/21 106/51/21
f 91/52/22 51/53/22 18/54/22 77/55/22
f 51/53/23 50/25/23 17/30/23 18/54/23
f 10/27/24 27/33/24 49/56/24 12/28/24
f 27/33/25 26/35/25 48/57/25 49/56/25
f 26/35/26 25/37/26 90/58/26 48/57/26
f 25/37/27 24/39/27 89/59/27 90/58/27
f 24/39/28 80/41/28 88/60/28 89/59/28
f 23/61/29 22/62/29 64/63/29 45/64/29
f 79/43/30 21/45/30 63/65/30 87/66/30
f 21/45/31 78/47/31 42/67/31 63/65/31
f 78/47/32 77/55/32 86/68/32 42/67/32
f 77/55/33 18/54/33 85/69/33 86/68/33
f 18/54/34 17/30/34 39/19/34 85/69/34
f 16/70/35 28/71/35 60/32/35 14/31/35
f 28/71/36 29/72/36 59/34/36 60/32/36
f 29/72/37 81/73/37 58/36/37 59/34/37
f 81/73/38 82/74/38 57/38/38 58/36/38
f 82/74/39 32/75/39 56/40/39 57/38/39
f 32/75/40 61/76/40 55/42/40 56/40/40
f 61/76/41 62/77/41 54/44/41 55/42/41
f 62/77/42 35/78/42 92/46/42 54/44/42
f 35/78/43 83/79/43 91/52/43 92/46/43
f 83/79/44 84/80/44 51/53/44 91/52/44
f 84/80/45 38/22/45 50/25/45 51/53/45
f 12/28/46 49/56/46 28/81/46 16/82/46
f 49/56/47 48/57/47 29/83/47 28/81/47
f 48/57/48 90/58/48 81/84/48 29/83/48
f 118/85/7 119/86/7 120/87/7 117/88/7
f 89/59/49 88/60/49 32/89/49 82/90/49
f 88/60/50 87/66/50 61/91/50 32/89/50
f 33/92/51 44/93/51 68/94/51 65/95/51
f 63/65/52 42/67/52 35/96/52 62/97/52
f 42/67/53 86/68/53 83/98/53 35/96/53
f 37/99/54 36/100/54 93/101/54 94/102/54
f 85/69/55 39/19/55 38/21/55 84/103/55
f 33/92/56 34/104/56 62/97/56 61/91/56
f 43/105/57 44/93/57 87/66/57 63/65/57
f 44/93/58 33/92/58 61/91/58 87/66/58
f 34/104/59 43/105/59 63/65/59 62/97/59
f 67/106/60 66/107/60 70/108/60 71/109/60
f 34/104/61 33/92/61 65/95/61 66/107/61
f 43/105/62 34/104/62 66/107/62 67/106/62
f 44/93/63 43/105/63 67/106/63 68/94/63
f 69/110/64 72/111/64 76/112/64 73/113/64
f 68/94/65 67/106/65 71/109/65 72/111/65
f 65/95/66 68/94/66 72/111/66 69/110/66
f 66/107/67 65/95/67 69/110/67 70/108/67
f 76/112/7 75/114/7 74/115/7 73/113/7
f 70/108/68 69/110/68 73/113/68 74/115/68
f 71/109/69 70/108/69 74/115/69 75/114/69
f 72/111/70 71/109/70 75/114/70 76/112/70
f 20/48/71 19/116/71 77/55/71 78/47/71
f 22/62/29 23/61/29 80/41/29 79/43/29
f 30/117/72 31/118/72 82/90/72 81/84/72
f 36/100/73 37/99/73 84/103/73 83/98/73
f 40/119/74 41/120/74 86/68/74 85/69/74
f 45/64/29 64/63/29 87/66/29 88/60/29
f 46/121/75 47/122/75 90/58/75 89/59/75
f 52/123/76 53/49/76 92/46/76 91/52/76
f 53/49/77 20/48/77 78/47/77 92/46/77
f 19/116/78 52/123/78 91/52/78 77/55/78
f 23/61/29 45/64/29 88/60/29 80/41/29
f 64/63/29 22/62/29 79/43/29 87/66/29
f 47/122/79 30/117/79 81/84/79 90/58/79
f 31/118/80 46/121/80 89/59/80 82/90/80
f 41/120/81 36/100/81 83/98/81 86/68/81
f 37/99/82 40/119/82 85/69/82 84/103/82
f 93/101/83 96/124/83 100/125/83 97/126/83
f 36/100/84 41/120/84 96/124/84 93/101/84
f 41/120/85 40/119/85 95/127/85 96/124/85
f 40/119/86 37/99/86 94/102/86 95/127/86
f 99/128/87 98/129/87 102/130/87 103/131/87
f 94/102/88 93/101/88 97/126/88 98/129/88
f 95/127/89 94/102/89 98/129/89 99/128/89
f 96/124/90 95/127/90 99/128/90 100/125/90
f 104/132/7 103/131/7 102/130/7 101/133/7
f 100/125/91 99/128/91 103/131/91 104/132/91
f 97/126/92 100/125/92 104/132/92 101/133/92
f 98/129/93 97/126/93 101/133/93 102/130/93
f 106/51/94 108/50/94 112/134/94 110/135/94
f 19/116/95 20/48/95 106/51/95 105/136/95
f 52/123/96 19/116/96 105/136/96 107/137/96
f 53/49/97 52/123/97 107/137/97 108/50/97
f 111/138/98 109/139/98 113/140/98 115/141/98
f 105/136/99 106/51/99 110/135/99 109/139/99
f 107/137/100 105/136/100 109/139/100 111/138/100
f 108/50/101 107/137/101 111/138/101 112/134/101
f 116/142/7 115/141/7 113/140/7 114/143/7
f 112/134/102 111/138/102 115/141/102 116/142/102
f 110/135/103 112/134/103 116/142/103 114/143/103
f 109/139/104 110/135/104 114/143/104 113/140/104
f 123/144/105 122/145/105 118/85/105 117/88/105
f 124/146/106 123/144/106 117/88/106 120/87/106
f 122/145/107 121/147/107 119/86/107 118/85/107
f 125/148/108 126/149/108 124/146/108 121/147/108
f 47/122/109 46/121/109 126/149/109 125/148/109
f 121/147/110 124/146/110 120/87/110 119/86/110
f 127/150/111 128/151/111 122/145/111 123/144/111
f 126/149/112 127/150/112 123/144/112 124/146/112
f 30/117/113 47/122/113 125/148/113 128/151/113
f 128/151/114 125/148/114 121/147/114 122/145/114
f 31/118/115 30/117/115 128/151/115 127/150/115
f 46/121/116 31/118/116 127/150/116 126/149/116
